<svg xmlns="http://www.w3.org/2000/svg" viewBox="0 0 861 309" width="861" height="309">
<g transform="translate(120.515,159.190) scale(0.98,1.0) translate(-65.0,0)" fill="#F1EADE"><path d="M3.25 -38.61Q3.25 -56.03 10.725 -69.095Q18.2 -82.16 32.11 -89.375Q46.02 -96.59 65.0 -96.59Q83.85000000000001 -96.59 97.825 -89.375Q111.8 -82.16 119.275 -69.03Q126.75 -55.9 126.75 -38.61Q126.75 -21.32 119.275 -8.19Q111.8 4.94 97.825 12.22Q83.85000000000001 19.5 65.0 19.5Q46.15 19.5 32.175 12.285Q18.2 5.07 10.725 -8.06Q3.25 -21.19 3.25 -38.61ZM84.11 -38.61Q84.11 -49.660000000000004 78.975 -55.44500000000001Q73.84 -61.230000000000004 65.0 -61.230000000000004Q56.160000000000004 -61.230000000000004 51.025000000000006 -55.44500000000001Q45.89 -49.660000000000004 45.89 -38.61Q45.89 -27.43 51.025000000000006 -21.645Q56.160000000000004 -15.860000000000001 65.0 -15.860000000000001Q73.84 -15.860000000000001 78.975 -21.645Q84.11 -27.43 84.11 -38.61Z"/></g>
<g transform="translate(271.015,159.190) scale(0.98,1.0) translate(-78.0,0)" fill="#F1EADE"><path d="M1.3 -93.99000000000001H37.7L38.74 -87.49000000000001Q41.34 -70.46000000000001 43.745000000000005 -56.68000000000001Q46.15 -42.9 49.27 -28.6Q52.13 -40.56 54.925 -54.405Q57.72 -68.25 59.93 -79.95L62.53 -93.34H93.47L96.07000000000001 -79.95Q98.28 -68.25 101.075 -54.405Q103.87 -40.56 106.73 -28.6Q109.98 -43.29 112.125 -55.965Q114.27000000000001 -68.64 117.65 -89.7L118.3 -93.99000000000001H154.70000000000002Q151.45000000000002 -65.26 144.495 -33.93Q137.54 -2.6 130.13 16.900000000000002H88.14Q83.46000000000001 0.91 78.0 -25.61Q72.54 0.91 67.86 16.900000000000002H25.87Q18.46 -2.6 11.505 -33.93Q4.55 -65.26 1.3 -93.99000000000001Z"/></g>
<g transform="translate(422.915,159.190) scale(0.98,1.0) translate(-62.400000000000006,0)" fill="#F1EADE"><path d="M44.72 -37.83Q44.59 -13.13 42.64 16.900000000000002H10.4Q5.8500000000000005 -16.900000000000002 5.8500000000000005 -50.7Q5.8500000000000005 -71.76 7.41 -93.99000000000001H45.370000000000005Q53.95 -84.76 62.92 -71.24000000000001Q71.89 -57.72 80.08 -42.25Q80.08 -64.48 80.73 -93.99000000000001H117.39Q118.95 -71.76 118.95 -50.7Q118.95 -16.900000000000002 114.4 16.900000000000002H80.86Q71.5 6.890000000000001 62.269999999999996 -7.345000000000001Q53.04 -21.580000000000002 44.72 -37.83Z"/></g>
<g transform="translate(527.225,159.190) scale(0.98,1.0) translate(-26.91,0)" fill="#F1EADE"><path d="M5.8500000000000005 -50.050000000000004Q5.8500000000000005 -70.72 7.28 -93.99000000000001H46.54Q47.97 -70.72 47.97 -50.050000000000004Q47.97 -16.12 44.2 16.900000000000002H9.620000000000001Q5.8500000000000005 -16.12 5.8500000000000005 -50.050000000000004Z"/></g>
<g transform="translate(627.660,159.190) scale(0.98,1.0) translate(-58.525,-93.99)" fill="#F1EADE"><path d="M3.5 66 C3.3 52 3.8 36 7 22 C9.5 12 14 5.5 22 2 C34 -3.2 46 -5 58 -5.2 C72 -5.4 90 -1.8 99.97 2.99 L95.16 36.92 Q84.5 33.15 72.41 33.15 Q64.48 33.15 59.54 34.97 Q49.53 38.35 46.41 48.23 Q60.06 47.58 70.98 47.58 Q82.16 47.58 94.25 48.23 L94.51 80.99 Q82.16 82.03 64.87 82.03 Q54.99 82.03 45.24 81.64 Q45.76 93.99 47.45 110.89 L8.32 110.89 C5 96 3.7 82 3.5 66 Z"/></g>
<g transform="translate(744.685,159.190) scale(0.98,1.0) translate(-58.5,0)" fill="#F1EADE"><path d="M1.3 -93.99000000000001H41.86Q47.71 -74.36 58.5 -50.31Q69.29 -74.36 75.14 -93.99000000000001H115.7Q111.15 -75.66 101.855 -55.315Q92.56 -34.97 80.60000000000001 -15.99Q80.73 -13.780000000000001 80.73 -9.23Q80.73 4.16 78.52 16.900000000000002H38.480000000000004Q36.27 4.55 36.27 -10.790000000000001V-15.99Q24.310000000000002 -35.1 15.080000000000002 -55.44500000000001Q5.8500000000000005 -75.79 1.3 -93.99000000000001Z"/></g>
<g transform="translate(114.133,241.496)" fill="#F1EADE"><path d="M4.844444444444445 -8.555555555555555H11.68888888888889V-5.666666666666667H4.844444444444445V0.0H1.4222222222222223V-15.555555555555555H12.577777777777778V-12.666666666666668H4.844444444444445Z"/></g>
<g transform="translate(150.220,241.496)" fill="#F1EADE"><path d="M0.48888888888888893 -7.777777777777778Q0.48888888888888893 -10.066666666666666 1.5333333333333334 -11.9Q2.577777777777778 -13.733333333333334 4.4222222222222225 -14.777777777777779Q6.266666666666667 -15.822222222222223 8.577777777777778 -15.822222222222223Q10.866666666666667 -15.822222222222223 12.711111111111112 -14.777777777777779Q14.555555555555555 -13.733333333333334 15.61111111111111 -11.9Q16.666666666666668 -10.066666666666666 16.666666666666668 -7.777777777777778Q16.666666666666668 -5.488888888888889 15.61111111111111 -3.6555555555555554Q14.555555555555555 -1.8222222222222222 12.711111111111112 -0.7777777777777778Q10.866666666666667 0.26666666666666666 8.577777777777778 0.26666666666666666Q6.266666666666667 0.26666666666666666 4.4222222222222225 -0.7777777777777778Q2.577777777777778 -1.8222222222222222 1.5333333333333334 -3.6555555555555554Q0.48888888888888893 -5.488888888888889 0.48888888888888893 -7.777777777777778ZM13.200000000000001 -7.777777777777778Q13.200000000000001 -9.222222222222223 12.600000000000001 -10.355555555555556Q12.0 -11.488888888888889 10.944444444444445 -12.122222222222224Q9.88888888888889 -12.755555555555556 8.577777777777778 -12.755555555555556Q7.266666666666667 -12.755555555555556 6.211111111111111 -12.122222222222224Q5.155555555555556 -11.488888888888889 4.555555555555555 -10.355555555555556Q3.9555555555555557 -9.222222222222223 3.9555555555555557 -7.777777777777778Q3.9555555555555557 -6.333333333333334 4.555555555555555 -5.2Q5.155555555555556 -4.066666666666666 6.211111111111111 -3.4333333333333336Q7.266666666666667 -2.8000000000000003 8.577777777777778 -2.8000000000000003Q9.88888888888889 -2.8000000000000003 10.944444444444445 -3.4333333333333336Q12.0 -4.066666666666666 12.600000000000001 -5.2Q13.200000000000001 -6.333333333333334 13.200000000000001 -7.777777777777778Z"/></g>
<g transform="translate(190.351,241.496)" fill="#F1EADE"><path d="M7.822222222222223 -4.333333333333334H4.844444444444445V0.0H1.4222222222222223V-15.555555555555555H7.822222222222223Q9.777777777777779 -15.555555555555555 11.222222222222223 -14.866666666666667Q12.666666666666668 -14.177777777777779 13.455555555555556 -12.911111111111111Q14.244444444444445 -11.644444444444446 14.244444444444445 -9.911111111111111Q14.244444444444445 -8.177777777777779 13.444444444444446 -6.9222222222222225Q12.644444444444446 -5.666666666666667 11.200000000000001 -5.0L14.511111111111111 0.0H10.844444444444445L7.977777777777778 -4.333333333333334ZM10.777777777777779 -9.911111111111111Q10.777777777777779 -11.200000000000001 9.977777777777778 -11.911111111111111Q9.177777777777779 -12.622222222222224 7.622222222222223 -12.622222222222224H4.844444444444445V-7.2H7.622222222222223Q9.155555555555557 -7.2 9.966666666666669 -7.911111111111111Q10.777777777777779 -8.622222222222222 10.777777777777779 -9.911111111111111Z"/></g>
<g transform="translate(255.547,241.496)" fill="#F1EADE"><path d="M14.844444444444445 -9.333333333333334 10.488888888888889 -1.6444444444444446H8.955555555555556L4.622222222222223 -9.133333333333333V0.0H1.4222222222222223V-15.555555555555555H4.2444444444444445L9.777777777777779 -5.888888888888889L15.222222222222223 -15.555555555555555H18.044444444444444L18.066666666666666 0.0H14.866666666666667Z"/></g>
<g transform="translate(298.011,241.496)" fill="#F1EADE"><path d="M8.511111111111111 0.0H5.0888888888888895V-5.555555555555555L-0.6222222222222222 -15.555555555555555H3.0L6.955555555555556 -8.644444444444444L10.88888888888889 -15.555555555555555H14.244444444444445L8.511111111111111 -5.511111111111111Z"/></g>
<g transform="translate(361.963,241.496)" fill="#F1EADE"><path d="M0.48888888888888893 -7.777777777777778Q0.48888888888888893 -10.066666666666666 1.5333333333333334 -11.9Q2.577777777777778 -13.733333333333334 4.4222222222222225 -14.777777777777779Q6.266666666666667 -15.822222222222223 8.577777777777778 -15.822222222222223Q10.866666666666667 -15.822222222222223 12.711111111111112 -14.777777777777779Q14.555555555555555 -13.733333333333334 15.61111111111111 -11.9Q16.666666666666668 -10.066666666666666 16.666666666666668 -7.777777777777778Q16.666666666666668 -5.488888888888889 15.61111111111111 -3.6555555555555554Q14.555555555555555 -1.8222222222222222 12.711111111111112 -0.7777777777777778Q10.866666666666667 0.26666666666666666 8.577777777777778 0.26666666666666666Q6.266666666666667 0.26666666666666666 4.4222222222222225 -0.7777777777777778Q2.577777777777778 -1.8222222222222222 1.5333333333333334 -3.6555555555555554Q0.48888888888888893 -5.488888888888889 0.48888888888888893 -7.777777777777778ZM13.200000000000001 -7.777777777777778Q13.200000000000001 -9.222222222222223 12.600000000000001 -10.355555555555556Q12.0 -11.488888888888889 10.944444444444445 -12.122222222222224Q9.88888888888889 -12.755555555555556 8.577777777777778 -12.755555555555556Q7.266666666666667 -12.755555555555556 6.211111111111111 -12.122222222222224Q5.155555555555556 -11.488888888888889 4.555555555555555 -10.355555555555556Q3.9555555555555557 -9.222222222222223 3.9555555555555557 -7.777777777777778Q3.9555555555555557 -6.333333333333334 4.555555555555555 -5.2Q5.155555555555556 -4.066666666666666 6.211111111111111 -3.4333333333333336Q7.266666666666667 -2.8000000000000003 8.577777777777778 -2.8000000000000003Q9.88888888888889 -2.8000000000000003 10.944444444444445 -3.4333333333333336Q12.0 -4.066666666666666 12.600000000000001 -5.2Q13.200000000000001 -6.333333333333334 13.200000000000001 -7.777777777777778Z"/></g>
<g transform="translate(402.094,241.496)" fill="#F1EADE"><path d="M18.91111111111111 0.0H15.244444444444445L12.0 -10.533333333333333L8.644444444444444 0.0H4.977777777777778L0.13333333333333333 -15.555555555555555H3.688888888888889L7.022222222222222 -4.622222222222223L10.488888888888889 -15.555555555555555H13.666666666666668L17.044444444444444 -4.533333333333333L20.48888888888889 -15.555555555555555H23.755555555555556Z"/></g>
<g transform="translate(448.958,241.496)" fill="#F1EADE"><path d="M14.977777777777778 0.0H12.155555555555557L4.8 -9.444444444444445V0.0H1.4222222222222223V-15.555555555555555H4.2444444444444445L11.6 -6.111111111111112V-15.555555555555555H14.977777777777778Z"/></g>
<g transform="translate(515.710,241.496)" fill="#F1EADE"><path d="M12.866666666666667 0.0H1.4222222222222223V-15.555555555555555H12.577777777777778V-12.666666666666668H4.822222222222222V-9.28888888888889H11.68888888888889V-6.488888888888889H4.822222222222222V-2.888888888888889H12.866666666666667Z"/></g>
<g transform="translate(552.174,241.496)" fill="#F1EADE"><path d="M14.977777777777778 0.0H12.155555555555557L4.8 -9.444444444444445V0.0H1.4222222222222223V-15.555555555555555H4.2444444444444445L11.6 -6.111111111111112V-15.555555555555555H14.977777777777778Z"/></g>
<g transform="translate(591.550,241.496)" fill="#F1EADE"><path d="M14.533333333333333 -8.022222222222222V-1.7111111111111112Q13.333333333333334 -0.7555555555555555 11.755555555555556 -0.24444444444444444Q10.177777777777779 0.26666666666666666 8.555555555555555 0.26666666666666666Q6.266666666666667 0.26666666666666666 4.4222222222222225 -0.7666666666666667Q2.577777777777778 -1.8 1.5333333333333334 -3.6333333333333333Q0.48888888888888893 -5.466666666666667 0.48888888888888893 -7.777777777777778Q0.48888888888888893 -10.088888888888889 1.5333333333333334 -11.922222222222222Q2.577777777777778 -13.755555555555556 4.433333333333334 -14.78888888888889Q6.288888888888889 -15.822222222222223 8.622222222222222 -15.822222222222223Q10.577777777777778 -15.822222222222223 12.155555555555555 -15.133333333333333Q13.733333333333334 -14.444444444444445 14.8 -13.133333333333335L12.6 -11.0Q11.044444444444444 -12.755555555555556 8.777777777777779 -12.755555555555556Q7.355555555555556 -12.755555555555556 6.2666666666666675 -12.133333333333333Q5.177777777777778 -11.511111111111111 4.566666666666666 -10.377777777777778Q3.9555555555555557 -9.244444444444445 3.9555555555555557 -7.777777777777778Q3.9555555555555557 -6.333333333333334 4.566666666666666 -5.2Q5.177777777777778 -4.066666666666666 6.2666666666666675 -3.4333333333333336Q7.355555555555556 -2.8000000000000003 8.755555555555556 -2.8000000000000003Q10.222222222222223 -2.8000000000000003 11.4 -3.466666666666667V-8.022222222222222Z"/></g>
<g transform="translate(630.125,241.496)" fill="#F1EADE"><path d="M4.844444444444445 -15.555555555555555V-2.9333333333333336H12.244444444444445V0.0H1.4222222222222223V-15.555555555555555Z"/></g>
<g transform="translate(665.190,241.496)" fill="#F1EADE"><path d="M4.844444444444445 -15.555555555555555V0.0H1.4222222222222223V-15.555555555555555Z"/></g>
<g transform="translate(694.432,241.496)" fill="#F1EADE"><path d="M0.26666666666666666 -1.5333333333333334 1.4222222222222223 -4.2444444444444445Q2.3777777777777778 -3.511111111111111 3.688888888888889 -3.0666666666666664Q5.0 -2.6222222222222222 6.288888888888889 -2.6222222222222222Q7.7555555555555555 -2.6222222222222222 8.455555555555556 -3.077777777777778Q9.155555555555557 -3.5333333333333337 9.155555555555557 -4.288888888888889Q9.155555555555557 -4.844444444444445 8.744444444444445 -5.211111111111112Q8.333333333333334 -5.577777777777778 7.688888888888889 -5.800000000000001Q7.044444444444444 -6.022222222222222 5.933333333333334 -6.288888888888889Q4.2444444444444445 -6.711111111111111 3.177777777777778 -7.133333333333334Q2.111111111111111 -7.555555555555556 1.3333333333333335 -8.488888888888889Q0.5555555555555556 -9.422222222222222 0.5555555555555556 -10.977777777777778Q0.5555555555555556 -12.333333333333334 1.2555555555555555 -13.433333333333334Q1.9555555555555557 -14.533333333333333 3.3555555555555556 -15.177777777777777Q4.7555555555555555 -15.822222222222223 6.777777777777778 -15.822222222222223Q8.200000000000001 -15.822222222222223 9.544444444444444 -15.466666666666669Q10.88888888888889 -15.111111111111112 11.911111111111111 -14.444444444444445L10.866666666666667 -11.711111111111112Q8.822222222222223 -12.933333333333334 6.7555555555555555 -12.933333333333334Q5.311111111111111 -12.933333333333334 4.633333333333333 -12.444444444444445Q3.9555555555555557 -11.955555555555556 3.9555555555555557 -11.155555555555557Q3.9555555555555557 -10.355555555555556 4.7444444444444445 -9.966666666666667Q5.533333333333333 -9.577777777777778 7.155555555555556 -9.200000000000001Q8.844444444444445 -8.777777777777779 9.922222222222222 -8.355555555555556Q11.0 -7.933333333333334 11.777777777777779 -7.022222222222222Q12.555555555555555 -6.111111111111112 12.555555555555555 -4.555555555555555Q12.555555555555555 -3.2222222222222223 11.844444444444445 -2.1222222222222222Q11.133333333333335 -1.0222222222222224 9.722222222222223 -0.3777777777777779Q8.311111111111112 0.26666666666666666 6.266666666666667 0.26666666666666666Q4.533333333333333 0.26666666666666666 2.9 -0.23333333333333336Q1.2666666666666666 -0.7333333333333334 0.26666666666666666 -1.5333333333333334Z"/></g>
<g transform="translate(730.208,241.496)" fill="#F1EADE"><path d="M14.977777777777778 0.0H11.555555555555555V-6.377777777777778H4.844444444444445V0.0H1.4222222222222223V-15.555555555555555H4.844444444444445V-9.422222222222222H11.555555555555555V-15.555555555555555H14.977777777777778Z"/></g>
</svg>